<svg width="339" height="56" viewBox="0 0 339 56" fill="none" xmlns="http://www.w3.org/2000/svg">
<g filter="url(#filter0_d_10_2)">
<path d="M15.9603 48V12.256H4.85625V3.2H36.0883V12.256H24.9843V48H15.9603ZM20.5043 43.456H20.4723V7.712H31.8963H9.04825H20.5043V43.456ZM66.2653 13.44L72.8573 20.032V29.152L66.2653 35.744H48.8573V36.992L50.8093 38.944H72.4093V48H46.3933L39.8013 41.408V20.032L46.3933 13.44H66.2653ZM63.9293 17.856L68.0253 21.888V27.84L64.6333 31.232H44.2493V22.208L48.6653 17.856H63.9293ZM63.9293 17.856H48.6653L44.2493 22.208V39.232L48.4093 43.328H68.4093H48.4093L44.2493 39.232V31.232H64.6333L68.0253 27.84V21.888L63.9293 17.856ZM61.8493 22.496H50.8093L48.8573 24.448V27.008H62.4893L63.8333 25.664V24.448L61.8493 22.496ZM89.7183 48L83.1263 41.408V20.032L89.7183 13.44H114.166V22.496H94.1343L92.1823 24.448V36.992L94.1343 38.944H114.166V48H89.7183ZM92.2463 43.488H110.102H92.2463L87.7023 39.104V22.112L91.9903 17.92H110.102H91.9903L87.7023 22.112V39.104L92.2463 43.488ZM125.369 48V0.0319977H134.425V14.048L135.033 13.44H149.977L156.569 20.032V48H147.513V24.448L145.561 22.464H136.985L134.425 25.056V48H125.369ZM130.073 43.456H130.041V23.36L135.577 17.888H148.153L152.057 21.728V43.456H152.025V21.728L148.153 17.888H135.577L130.041 23.36V4.928H130.073V43.456ZM171.831 43.456H171.799V7.712H181.111L192.439 43.456H201.655V7.712H201.687V43.456H192.439L181.111 7.712H171.831V43.456ZM167.319 48V3.2H184.695L195.767 38.816H197.143V3.2H206.199V48H188.823L177.687 12.288H176.375V48H167.319ZM223.506 48L216.914 41.408V20.032L223.506 13.44H243.506L250.098 20.032V41.408L243.506 48H223.506ZM226.066 43.456H241.33L245.522 38.976V22.208L241.33 17.92H225.81L221.554 22.208V38.976L226.066 43.456ZM226.066 43.456L221.554 38.976V22.208L225.81 17.92H241.33L245.522 22.208V38.976L241.33 43.456H226.066ZM227.922 38.944H239.09L241.042 36.992V24.448L239.09 22.496H227.922L225.97 24.448V36.992L227.922 38.944ZM265.9 48L258.284 13.44H268.172L273.26 38.912H278.924L283.916 13.44H293.804L286.316 48H265.9ZM269.772 43.456H282.54L288.108 17.92L282.54 43.456H269.772L264.172 17.92L269.772 43.456ZM308.531 48L301.939 41.408V32.288L308.531 25.696H325.939V24.448L323.987 22.496H302.387V13.44H328.403L334.995 20.032V41.408L328.403 48H308.531ZM310.867 43.584L306.771 39.552V33.6L310.163 30.208H330.547V39.232L326.131 43.584H310.867ZM310.867 43.584H326.131L330.547 39.232V22.208L326.387 18.112H306.387H326.387L330.547 22.208V30.208H310.163L306.771 33.6V39.552L310.867 43.584ZM312.947 38.944H323.987L325.939 36.992V34.432H312.307L310.963 35.776V36.992L312.947 38.944Z" fill="white"/>
</g>
<defs>
<filter id="filter0_d_10_2" x="0.856262" y="0.0319977" width="338.138" height="55.968" filterUnits="userSpaceOnUse" color-interpolation-filters="sRGB">
<feFlood flood-opacity="0" result="BackgroundImageFix"/>
<feColorMatrix in="SourceAlpha" type="matrix" values="0 0 0 0 0 0 0 0 0 0 0 0 0 0 0 0 0 0 127 0" result="hardAlpha"/>
<feOffset dy="4"/>
<feGaussianBlur stdDeviation="2"/>
<feComposite in2="hardAlpha" operator="out"/>
<feColorMatrix type="matrix" values="0 0 0 0 0 0 0 0 0 0 0 0 0 0 0 0 0 0 0.25 0"/>
<feBlend mode="normal" in2="BackgroundImageFix" result="effect1_dropShadow_10_2"/>
<feBlend mode="normal" in="SourceGraphic" in2="effect1_dropShadow_10_2" result="shape"/>
</filter>
</defs>
</svg>
